<?xml version="1.0" encoding="UTF-8"?>
<!DOCTYPE svg PUBLIC "-//W3C//DTD SVG 1.1//EN" "http://www.w3.org/Graphics/SVG/1.1/DTD/svg11.dtd">
<svg version="1.1" id="Layer_1" xmlns="http://www.w3.org/2000/svg" xmlns:xlink="http://www.w3.org/1999/xlink" width="495" height="657" viewBox="0 0 495 657" overflow="visible" enable-background="new 0 0 495 657" xml:space="preserve">
<line fill="none" stroke="#000000" stroke-width="2" x1="243" y1="36" x2="243" y2="252"/>
<rect x="166.632" y="67.632" transform="matrix(-0.7071 0.7071 -0.7071 -0.7071 516.6503 73.9964)" fill="none" stroke="#000000" stroke-width="2" width="152.735" height="152.735"/>
<rect x="135" y="36" fill="none" stroke="#000000" stroke-width="2" width="216" height="216"/>
<circle fill="#FFFFFF" stroke="#000000" stroke-width="2" cx="243" cy="36" r="22.5"/>
<circle fill="#FFFFFF" stroke="#000000" stroke-width="2" cx="135" cy="36" r="22.5"/>
<circle fill="#FFFFFF" stroke="#000000" stroke-width="2" cx="135" cy="144" r="22.5"/>
<circle fill="#FFFFFF" stroke="#000000" stroke-width="2" cx="135" cy="252" r="22.5"/>
<circle fill="#FFFFFF" stroke="#000000" stroke-width="2" cx="243" cy="252" r="22.5"/>
<circle fill="#FFFFFF" stroke="#000000" stroke-width="2" cx="351" cy="252" r="22.5"/>
<circle fill="#FFFFFF" stroke="#000000" stroke-width="2" cx="351" cy="144" r="22.5"/>
<circle fill="#FFFFFF" stroke="#000000" stroke-width="2" cx="351" cy="36" r="22.5"/>
<text transform="matrix(1 0 0 1 123 47)" fill="#5110D2" font-family="Liberation Serif" font-style="normal" font-size="36">A</text>
<g>

	<g>
		<path fill="#FFFFFF" d="M432,540c-10.014,0-19.384,2.735-27.422,7.485l-34.063-34.062C375.265,505.384,378,496.014,378,486    s-2.735-19.384-7.485-27.423l34.062-34.062C412.616,429.265,421.986,432,432,432c29.823,0,54-24.177,54-54s-24.177-54-54-54    s-54,24.177-54,54c0,10.014,2.735,19.384,7.485,27.423l-34.062,34.062C343.385,434.735,334.014,432,324,432    c-25.162,0-46.304,17.21-52.299,40.5h-48.402C217.304,449.21,196.162,432,171,432c-10.013,0-19.383,2.735-27.422,7.485    l-34.063-34.062C114.265,397.384,117,388.014,117,378c0-29.823-24.177-54-54-54S9,348.177,9,378s24.177,54,54,54    c10.014,0,19.384-2.736,27.423-7.485l34.062,34.062C119.736,466.615,117,475.986,117,486c0,8.576,2.008,16.681,5.566,23.883    l-35.683,35.684C79.681,542.009,71.577,540,63,540c-29.823,0-54,24.177-54,54s24.177,54,54,54s54-24.177,54-54    c0-11.429-3.56-22.021-9.619-30.749l32.87-32.87C148.979,536.439,159.571,540,171,540c25.162,0,46.304-17.21,52.299-40.5h48.402    C277.696,522.79,298.838,540,324,540c10.014,0,19.385-2.736,27.424-7.485l34.062,34.062C380.736,574.615,378,583.986,378,594    c0,29.823,24.177,54,54,54s54-24.177,54-54S461.823,540,432,540z"/>
	</g>
	<g>
		<path fill="none" stroke="#000000" d="M432,540c-10.014,0-19.384,2.735-27.422,7.485l-34.063-34.062    C375.265,505.384,378,496.014,378,486s-2.735-19.384-7.485-27.423l34.062-34.062C412.616,429.265,421.986,432,432,432    c29.823,0,54-24.177,54-54s-24.177-54-54-54s-54,24.177-54,54c0,10.014,2.735,19.384,7.485,27.423l-34.062,34.062    C343.385,434.735,334.014,432,324,432c-25.162,0-46.304,17.21-52.299,40.5h-48.402C217.304,449.21,196.162,432,171,432    c-10.013,0-19.383,2.735-27.422,7.485l-34.063-34.062C114.265,397.384,117,388.014,117,378c0-29.823-24.177-54-54-54    S9,348.177,9,378s24.177,54,54,54c10.014,0,19.384-2.736,27.423-7.485l34.062,34.062C119.736,466.615,117,475.986,117,486    c0,8.576,2.008,16.681,5.566,23.883l-35.683,35.684C79.681,542.009,71.577,540,63,540c-29.823,0-54,24.177-54,54s24.177,54,54,54    s54-24.177,54-54c0-11.429-3.56-22.021-9.619-30.749l32.87-32.87C148.979,536.439,159.571,540,171,540    c25.162,0,46.304-17.21,52.299-40.5h48.402C277.696,522.79,298.838,540,324,540c10.014,0,19.385-2.736,27.424-7.485l34.062,34.062    C380.736,574.615,378,583.986,378,594c0,29.823,24.177,54,54,54s54-24.177,54-54S461.823,540,432,540z"/>
	</g>
</g>
<text transform="matrix(1 0 0 1 72 369)" fill="#BF0000" font-family="Liberation Serif" font-style="normal" font-size="36">B</text>
<text transform="matrix(1 0 0 1 232 47)" fill="#BF0000" font-family="Liberation Serif" font-style="normal" font-size="36">B</text>

<text transform="matrix(1 0 0 1 27 367)" fill="#5110D2" font-family="Liberation Serif" font-style="normal" font-size="36">A</text>
<text transform="matrix(1 0 0 1 42 415)" fill="#476B00" font-family="Liberation Serif" font-style="normal" font-size="36">C</text>
<text transform="matrix(1 0 0 1 123 155)" fill="#476B00" font-family="Liberation Serif" font-style="normal" font-size="36">C</text>
<text transform="matrix(1 0 0 1 135 495)" fill="#476B00" font-family="Liberation Serif" font-style="normal" font-size="36">C</text>
<text transform="matrix(1 0 0 1 41 577)" fill="#476B00" font-family="Liberation Serif" font-style="normal" font-size="36">C</text>
<text transform="matrix(1 0 0 1 171 477)" fill="#BF0000" font-family="Liberation Serif" font-style="normal" font-size="36">B</text>
<text transform="matrix(1 0 0 1 297 477)" fill="#BF0000" font-family="Liberation Serif" font-style="normal" font-size="36">B</text>
<text transform="matrix(1 0 0 1 396 378)" fill="#BF0000" font-family="Liberation Serif" font-style="normal" font-size="36">B</text>
<text transform="matrix(1 0 0 1 36 621)" fill="#5A3000" font-family="Liberation Serif" font-style="normal" font-size="36">D</text>

<text transform="matrix(1 0 0 1 123 263)" fill="#5A3000" font-family="Liberation Serif" font-style="normal" font-size="36">D</text>
<text transform="matrix(1 0 0 1 80 612)" fill="#0092C8" font-family="Liberation Serif" font-style="normal" font-size="36">E</text>
<text transform="matrix(1 0 0 1 171 513)" fill="#0092C8" font-family="Liberation Serif" font-style="normal" font-size="36">E</text>
<text transform="matrix(1 0 0 1 232 263)" fill="#0092C8" font-family="Liberation Serif" font-style="normal" font-size="36">E</text>
<text transform="matrix(1 0 0 1 297 513)" fill="#0092C8" font-family="Liberation Serif" font-style="normal" font-size="36">E</text>
<text transform="matrix(1 0 0 1 396 603)" fill="#0092C8" font-family="Liberation Serif" font-style="normal" font-size="36">E</text>
<text transform="matrix(1 0 0 1 441 369)" fill="#007D7D" font-family="Liberation Serif" font-style="normal" font-size="36">F</text>
<text transform="matrix(1 0 0 1 340 47)" fill="#007D7D" font-family="Liberation Serif" font-style="normal" font-size="36">F</text>
<text transform="matrix(1 0 0 1 425 411)" fill="#A210D2" font-family="Liberation Serif" font-style="normal" font-size="36">G</text>

<text transform="matrix(1 0 0 1 340 155)" fill="#A210D2" font-family="Liberation Serif" font-style="normal" font-size="36">G</text>
<text transform="matrix(1 0 0 1 333 495)" fill="#A210D2" font-family="Liberation Serif" font-style="normal" font-size="36">G</text>
<text transform="matrix(1 0 0 1 423 576)" fill="#A210D2" font-family="Liberation Serif" font-style="normal" font-size="36">G</text>
<text transform="matrix(1 0 0 1 441 621)" fill="#CA5C00" font-family="Liberation Serif" font-style="normal" font-size="36">H</text>
<text transform="matrix(1 0 0 1 340 263)" fill="#CA5C00" font-family="Liberation Serif" font-style="normal" font-size="36">H</text>
<path opacity="0.4" fill="none" stroke="#476B00" stroke-width="4" d="M69.333,403.668c0,0,24.667,10.665,42.667,28.999  s25.667,34.667,25.667,34.667"/>
<path opacity="0.4" fill="none" stroke="#476B00" stroke-width="4" d="M138.667,496.334c0,0-8,19-26.333,37  s-42.667,25.334-42.667,25.334"/>
<path opacity="0.4" fill="none" stroke="#BF0000" stroke-width="4" d="M88,373.001c0,0,5.333,30.334,30.333,54.667  S165,457.334,165,457.334"/>
<path opacity="0.4" fill="none" stroke="#BF0000" stroke-width="4" d="M197,471.334c0,0,21.667,10.668,50.333,10.334  S295,472.001,295,472.001"/>
<path opacity="0.4" fill="none" stroke="#BF0000" stroke-width="4" d="M321.334,460.334c0,0,32.333-8.334,53.333-31  s29-46.333,29-46.333"/>
<path opacity="0.4" fill="none" stroke="#0092C8" stroke-width="4" d="M97.667,583c0,0-5.667-19.333,20.667-44s51-35.667,51-35.667"/>
<path opacity="0.4" fill="none" stroke="#0092C8" stroke-width="4" d="M194.667,495.666c0,0,26.333-7,52.667-6.333s47,7,47,7"/>

<path opacity="0.4" fill="none" stroke="#0092C8" stroke-width="4" d="M322.334,506.333c0,0,29.667,12.667,51,36  s25,32.333,25,32.333"/>
<path opacity="0.4" fill="none" stroke="#A210D2" stroke-width="4" d="M423.333,407.667c0,0-21.333,2.667-39.333,24  s-24.667,34.666-24.667,34.666"/>
<path opacity="0.4" fill="none" stroke="#A210D2" stroke-width="4" d="M357.333,497.667c0,0,3.334,20,22.667,39.333  s40,21.333,40,21.333"/>
<rect fill="none" width="495" height="657"/>
</svg>